<svg width="60" height="60" viewBox="0 0 60 60" fill="none" xmlns="http://www.w3.org/2000/svg">
<path d="M6 30C6 36.3652 8.52856 42.4697 13.0294 46.9706C17.5303 51.4714 23.6348 54 30 54C36.3652 54 42.4697 51.4714 46.9706 46.9706C51.4714 42.4697 54 36.3652 54 30C54 23.6348 51.4714 17.5303 46.9706 13.0294C42.4697 8.52856 36.3652 6 30 6C23.6348 6 17.5303 8.52856 13.0294 13.0294C8.52856 17.5303 6 23.6348 6 30ZM15.1313 20.7844C14.4281 20.025 14.4656 18.8437 15.225 18.1312C17.1563 16.3219 19.6125 15.0937 22.3406 14.7375C22.8844 14.6625 23.4375 14.625 24 14.625C25.0312 14.625 25.875 15.4688 25.875 16.5C25.875 17.5312 25.0312 18.375 24 18.375C23.6063 18.375 23.2125 18.4031 22.8281 18.45C20.925 18.7031 19.1812 19.5656 17.7844 20.8688C17.025 21.5719 15.8438 21.5344 15.1313 20.775V20.7844ZM25.5 27C25.5 27.7956 25.1839 28.5587 24.6213 29.1213C24.0587 29.6839 23.2956 30 22.5 30C21.7044 30 20.9413 29.6839 20.3787 29.1213C19.8161 28.5587 19.5 27.7956 19.5 27C19.5 26.2044 19.8161 25.4413 20.3787 24.8787C20.9413 24.3161 21.7044 24 22.5 24C23.2956 24 24.0587 24.3161 24.6213 24.8787C25.1839 25.4413 25.5 26.2044 25.5 27ZM22.5 43.5C22.5 39.3562 25.8562 36 30 36C34.1438 36 37.5 39.3562 37.5 43.5C37.5 44.325 36.825 45 36 45H24C23.175 45 22.5 44.325 22.5 43.5ZM34.125 16.5C34.125 15.4688 34.9688 14.625 36 14.625C36.5625 14.625 37.1156 14.6625 37.6594 14.7375C40.3875 15.0937 42.8438 16.3312 44.775 18.1312C45.5344 18.8344 45.5719 20.025 44.8688 20.7844C44.1656 21.5437 42.975 21.5812 42.2156 20.8781C40.8187 19.575 39.075 18.7125 37.1719 18.4594C36.7875 18.4125 36.3937 18.3844 36 18.3844C34.9688 18.3844 34.125 17.5406 34.125 16.5094V16.5ZM40.5 27C40.5 27.7956 40.1839 28.5587 39.6213 29.1213C39.0587 29.6839 38.2956 30 37.5 30C36.7044 30 35.9413 29.6839 35.3787 29.1213C34.8161 28.5587 34.5 27.7956 34.5 27C34.5 26.2044 34.8161 25.4413 35.3787 24.8787C35.9413 24.3161 36.7044 24 37.5 24C38.2956 24 39.0587 24.3161 39.6213 24.8787C40.1839 25.4413 40.5 26.2044 40.5 27Z" fill="#333333"/>
</svg>
