<svg width="60" height="60" viewBox="0 0 60 60" fill="none" xmlns="http://www.w3.org/2000/svg">
<path d="M40.0405 10C43.3973 10 46.1185 12.7213 46.1187 16.0781V43.9219C46.1186 47.2787 43.3974 50 40.0405 50H19.9595C16.6027 49.9999 13.8814 47.2786 13.8813 43.9219V16.0781C13.8815 12.7214 16.6027 10.0001 19.9595 10H40.0405ZM19.0063 40.4404C18.5269 40.4405 18.1382 40.8291 18.1382 41.3086V41.7422C18.1382 42.2217 18.5269 42.6103 19.0063 42.6104H27.4771C27.9566 42.6103 28.3452 42.2217 28.3452 41.7422V41.3086C28.3452 40.8291 27.9566 40.4405 27.4771 40.4404H19.0063ZM19.0063 35.6641C18.527 35.6641 18.1384 36.0529 18.1382 36.5322V36.9668C18.1382 37.4463 18.5268 37.8349 19.0063 37.835H39.1558C39.6352 37.8348 40.0239 37.4462 40.0239 36.9668V36.5322C40.0237 36.0529 39.6351 35.6642 39.1558 35.6641H19.0063ZM21.6118 14.4873C19.6937 14.4873 18.1383 16.0418 18.1382 17.96V26.7207C18.1382 28.6389 19.6936 30.1943 21.6118 30.1943H38.3892C40.3074 30.1943 41.8628 28.6389 41.8628 26.7207V17.96C41.8627 16.0418 40.3073 14.4873 38.3892 14.4873H21.6118Z" fill="#333333"/>
</svg>
