<svg width="40" height="40" viewBox="0 0 40 40" fill="none" xmlns="http://www.w3.org/2000/svg">
<path d="M20.0038 0C18.6547 0 17.5648 1.08994 17.5648 2.43902V2.68293C12.0008 3.81098 7.80871 8.73476 7.80871 14.6341V16.2881C7.80871 19.9543 6.55871 23.5137 4.27213 26.3796L3.52518 27.3095C3.13646 27.7896 2.93066 28.3841 2.93066 29.0015C2.93066 30.4954 4.14255 31.7073 5.63646 31.7073H34.3636C35.8575 31.7073 37.0694 30.4954 37.0694 29.0015C37.0694 28.3841 36.8636 27.7896 36.4749 27.3095L35.7279 26.3796C33.449 23.5137 32.199 19.9543 32.199 16.2881V14.6341C32.199 8.73476 28.0069 3.81098 22.4429 2.68293V2.43902C22.4429 1.08994 21.3529 0 20.0038 0Z" fill="currentColor"/>
<path d="M14.386 34.386C14.386 35.8749 14.9775 37.3028 16.0303 38.3557C17.0832 39.4085 18.5111 40 20.0001 40C21.489 40 22.917 39.4085 23.9698 38.3557C25.0226 37.3028 25.6141 35.8749 25.6141 34.386H14.386Z" fill="currentColor"/>
</svg>
