<svg width="40" height="40" viewBox="0 0 40 40" fill="none" xmlns="http://www.w3.org/2000/svg">
<g clip-path="url(#clip0_370_1940)">
<path d="M1.33333 18.6667V34.6667C1.33333 37.6083 3.72499 40 6.66666 40H33.3333C36.275 40 38.6667 37.6083 38.6667 34.6667V18.6667H1.33333Z" fill="#333333"/>
<path d="M9.33333 2.66667C9.33333 1.19167 10.525 0 12 0C13.475 0 14.6667 1.19167 14.6667 2.66667V5.33333H25.3333V2.66667C25.3333 1.19167 26.525 0 28 0C29.475 0 30.6667 1.19167 30.6667 2.66667V5.33333H33.3333C36.275 5.33333 38.6667 7.725 38.6667 10.6667V14.6667H1.33333V10.6667C1.33333 7.725 3.72499 5.33333 6.66666 5.33333H9.33333V2.66667Z" fill="#717171"/>
</g>
<defs>
<clipPath id="clip0_370_1940">
<rect width="40" height="40" fill="white"/>
</clipPath>
</defs>
</svg>
