<svg width="60" height="60" viewBox="0 0 60 60" fill="none" xmlns="http://www.w3.org/2000/svg">
<path d="M30 10C41.046 10.0001 50.001 18.9543 50.001 30C50.0009 41.0457 41.046 49.9999 30 50C18.9539 50 9.99909 41.0457 9.99902 30C9.99902 18.9542 18.9539 10 30 10ZM39.4629 26.5234C39.543 26.8381 39.6094 27.1546 39.6611 27.4717C39.799 28.316 39.8356 29.1652 39.7793 30C39.6482 31.9886 38.9723 33.8878 37.8555 35.4814C36.2755 37.7477 33.8065 39.4004 30.959 39.9375C30.6437 39.9977 30.3245 40.0448 30 40.0781C30.3244 40.1114 30.6497 40.128 30.9766 40.127C33.9328 40.1429 36.9391 38.5742 38.6748 36.0547C39.9129 34.2966 40.5201 32.1075 40.3779 30C40.322 29.1151 40.1414 28.2434 39.8447 27.4238C39.7334 27.1159 39.6056 26.8151 39.4629 26.5234ZM30 19.5078C28.0072 19.4446 25.9811 20.0018 24.292 21.0918C21.2941 22.9796 19.4702 26.5465 19.6885 29.999C19.7294 30.7923 19.8658 31.5773 20.0938 32.3281C20.2288 32.7731 20.3963 33.2071 20.5928 33.624C20.4585 33.1831 20.353 32.7353 20.2783 32.2852C20.1523 31.5254 20.1121 30.7572 20.1533 29.999C20.3116 26.7013 22.1307 23.6492 24.832 21.9326C26.3624 20.9473 28.1612 20.3887 30 20.334C32.1348 20.2612 34.3118 20.8791 36.1377 22.125C36.515 22.3815 36.8782 22.6637 37.2227 22.9697C36.9259 22.6171 36.6012 22.2837 36.2539 21.9746C34.5779 20.4723 32.3172 19.5659 30 19.5078Z" fill="#333333"/>
</svg>
