<svg width="60" height="60" viewBox="0 0 60 60" fill="none" xmlns="http://www.w3.org/2000/svg">
<path d="M11.9355 19.0323C11.9355 17.8461 12.1691 16.6716 12.623 15.5758C13.0769 14.4799 13.7422 13.4842 14.5809 12.6455C15.4197 11.8068 16.4154 11.1415 17.5112 10.6875C18.6071 10.2336 19.7816 10 20.9677 10C22.1539 10 23.3284 10.2336 24.4242 10.6875C25.5201 11.1415 26.5158 11.8068 27.3545 12.6455C28.1932 13.4842 28.8585 14.4799 29.3124 15.5758C29.7664 16.6716 30 17.8461 30 19.0323C30 20.2184 29.7664 21.3929 29.3124 22.4888C28.8585 23.5846 28.1932 24.5803 27.3545 25.419C26.5158 26.2578 25.5201 26.9231 24.4242 27.377C23.3284 27.8309 22.1539 28.0645 20.9677 28.0645C19.7816 28.0645 18.6071 27.8309 17.5112 27.377C16.4154 26.9231 15.4197 26.2578 14.5809 25.419C13.7422 24.5803 13.0769 23.5846 12.623 22.4888C12.1691 21.3929 11.9355 20.2184 11.9355 19.0323ZM6.77417 46.129C6.77417 38.2903 13.129 31.9355 20.9677 31.9355C28.8064 31.9355 35.1613 38.2903 35.1613 46.129V46.6129C35.1613 48.4839 33.6451 50 31.7742 50H10.1613C8.2903 50 6.77417 48.4839 6.77417 46.6129V46.129ZM41.6129 13.871C43.6662 13.871 45.6354 14.6866 47.0873 16.1385C48.5392 17.5904 49.3548 19.5596 49.3548 21.6129C49.3548 23.6662 48.5392 25.6354 47.0873 27.0873C45.6354 28.5392 43.6662 29.3548 41.6129 29.3548C39.5596 29.3548 37.5904 28.5392 36.1385 27.0873C34.6866 25.6354 33.8709 23.6662 33.8709 21.6129C33.8709 19.5596 34.6866 17.5904 36.1385 16.1385C37.5904 14.6866 39.5596 13.871 41.6129 13.871ZM41.6129 33.2258C48.0242 33.2258 53.2258 38.4274 53.2258 44.8387V46.6452C53.2258 48.5 51.7258 50 49.8709 50H38.1935C38.7258 48.9919 39.0322 47.8387 39.0322 46.6129V46.129C39.0322 41.9758 37.629 38.1532 35.2822 35.1048C37.1048 33.9194 39.2822 33.2258 41.6129 33.2258Z" fill="#333333"/>
</svg>
