<svg width="40" height="40" viewBox="0 0 40 40" fill="none" xmlns="http://www.w3.org/2000/svg">
<g clip-path="url(#clip0_381_10364)">
<path d="M4.44444 10.5556C4.44444 9.53417 4.64562 8.52278 5.03649 7.57914C5.42736 6.63549 6.00027 5.77808 6.7225 5.05584C7.44473 4.33361 8.30215 3.7607 9.24579 3.36983C10.1894 2.97896 11.2008 2.77779 12.2222 2.77779C13.2436 2.77779 14.255 2.97896 15.1986 3.36983C16.1423 3.7607 16.9997 4.33361 17.7219 5.05584C18.4442 5.77808 19.0171 6.63549 19.4079 7.57914C19.7988 8.52278 20 9.53417 20 10.5556C20 11.577 19.7988 12.5883 19.4079 13.532C19.0171 14.4756 18.4442 15.333 17.7219 16.0553C16.9997 16.7775 16.1423 17.3504 15.1986 17.7413C14.255 18.1322 13.2436 18.3333 12.2222 18.3333C11.2008 18.3333 10.1894 18.1322 9.24579 17.7413C8.30215 17.3504 7.44473 16.7775 6.7225 16.0553C6.00027 15.333 5.42736 14.4756 5.03649 13.532C4.64562 12.5883 4.44444 11.577 4.44444 10.5556ZM0 33.8889C0 27.1389 5.47222 21.6667 12.2222 21.6667C18.9722 21.6667 24.4444 27.1389 24.4444 33.8889V34.3056C24.4444 35.9167 23.1389 37.2222 21.5278 37.2222H2.91667C1.30555 37.2222 0 35.9167 0 34.3056V33.8889Z" fill="#333333"/>
<path d="M30.9354 11.1824C31.9099 11.1825 32.7 11.9726 32.7 12.9471V18.0252H37.7781C38.7527 18.0252 39.5428 18.8153 39.5428 19.7899C39.5428 20.7644 38.7527 21.5545 37.7781 21.5545H32.7V26.6326C32.7 27.6071 31.9099 28.3973 30.9354 28.3973C29.9608 28.3973 29.1707 27.6072 29.1707 26.6326V21.5545H24.0926C23.1181 21.5545 22.3279 20.7644 22.3279 19.7899C22.3279 18.8153 23.1181 18.0252 24.0926 18.0252H29.1707V12.9471C29.1707 11.9726 29.9608 11.1824 30.9354 11.1824Z" fill="#717171"/>
</g>
<defs>
<clipPath id="clip0_381_10364">
<rect width="40" height="40" fill="white"/>
</clipPath>
</defs>
</svg>
