<svg width="40" height="40" viewBox="0 0 40 40" fill="none" xmlns="http://www.w3.org/2000/svg">
<path opacity="0.4" d="M16.4686 20.0008C16.4686 20.931 16.838 21.8232 17.4958 22.4808C18.1537 23.1386 19.0456 23.5081 19.9758 23.5081C20.906 23.5081 21.7982 23.1386 22.456 22.4808C23.1137 21.8232 23.4833 20.931 23.4833 20.0008C23.4833 19.0706 23.1137 18.1784 22.456 17.5206C21.7982 16.863 20.906 16.4933 19.9758 16.4933C19.0456 16.4933 18.1537 16.863 17.4958 17.5206C16.838 18.1784 16.4686 19.0706 16.4686 20.0008Z" fill="#333333"/>
<path d="M15.4979 1.875C15.7185 0.786765 16.6817 0 17.7994 0H22.1964C23.3141 0 24.2774 0.786765 24.498 1.875L25.5641 7.02206C26.6009 7.46324 27.5715 8.02941 28.4539 8.69853L33.4392 7.04412C34.498 6.69118 35.6598 7.13235 36.2186 8.10294L38.417 11.9118C38.9758 12.8824 38.7774 14.1029 37.9392 14.8456L34.02 18.331C34.0862 18.8751 34.1156 19.4339 34.1156 20C34.1156 20.5663 34.0788 21.1251 34.02 21.6692L37.9464 25.1618C38.7847 25.9045 38.9758 27.1324 38.4245 28.0957L36.2258 31.9045C35.667 32.8676 34.5052 33.3163 33.4464 32.9633L28.4611 31.3088C27.5715 31.978 26.6009 32.5369 25.5715 32.9853L24.5127 38.1251C24.2847 39.2206 23.3215 40 22.2111 40H17.8141C16.6964 40 15.7332 39.2133 15.5126 38.1251L14.4538 32.9853C13.417 32.5441 12.4538 31.978 11.5641 31.3088L6.55674 32.9633C5.49791 33.3163 4.33615 32.8751 3.77733 31.9045L1.5788 28.0957C1.01997 27.1251 1.2185 25.9045 2.05674 25.1618L5.98321 21.6692C5.91703 21.1251 5.88762 20.5663 5.88762 20C5.88762 19.4339 5.92438 18.8751 5.98321 18.331L2.05674 14.8382C1.2185 14.0956 1.02733 12.8676 1.5788 11.9044L3.77733 8.09559C4.33615 7.125 5.49791 6.68382 6.55674 7.03676L11.542 8.69118C12.4317 8.02206 13.4023 7.46324 14.4317 7.01471L15.4979 1.875ZM19.998 27.0588C20.9249 27.0559 21.8423 26.8704 22.6976 26.5131C23.5529 26.1557 24.3294 25.6333 24.9829 24.9757C25.6362 24.3182 26.1537 23.5384 26.5058 22.681C26.8578 21.8233 27.0376 20.9049 27.0347 19.978C27.0317 19.051 26.8464 18.1337 26.489 17.2784C26.1315 16.4229 25.6092 15.6465 24.9515 14.9931C24.2941 14.3396 23.5143 13.8221 22.6568 13.4701C21.7992 13.118 20.8807 12.9383 19.9539 12.9412C19.0268 12.9441 18.1096 13.1295 17.2543 13.4869C16.399 13.8444 15.6223 14.3667 14.9689 15.0243C14.3155 15.6818 13.798 16.4616 13.4459 17.319C13.0939 18.1767 12.9141 19.0951 12.917 20.0222C12.9199 20.949 13.1054 21.8665 13.4628 22.7218C13.8202 23.5771 14.3426 24.3535 15.0001 25.0069C15.6576 25.6604 16.4374 26.1778 17.2949 26.53C18.1525 26.882 19.0709 27.0618 19.998 27.0588Z" fill="#333333"/>
</svg>
