<svg width="40" height="40" viewBox="0 0 40 40" fill="none" xmlns="http://www.w3.org/2000/svg">
<path d="M32.5 40H10C5.85938 40 2.5 36.6406 2.5 32.5V7.5C2.5 3.35938 5.85938 0 10 0H33.75C35.8203 0 37.5 1.67969 37.5 3.75V26.25C37.5 27.8828 36.4531 29.2734 35 29.7891V35C36.3828 35 37.5 36.1172 37.5 37.5C37.5 38.8828 36.3828 40 35 40H32.5ZM10 30C8.61719 30 7.5 31.1172 7.5 32.5C7.5 33.8828 8.61719 35 10 35H30V30H10ZM12.5 11.875C12.5 12.9141 13.3359 13.75 14.375 13.75H28.125C29.1641 13.75 30 12.9141 30 11.875C30 10.8359 29.1641 10 28.125 10H14.375C13.3359 10 12.5 10.8359 12.5 11.875ZM14.375 17.5C13.3359 17.5 12.5 18.3359 12.5 19.375C12.5 20.4141 13.3359 21.25 14.375 21.25H28.125C29.1641 21.25 30 20.4141 30 19.375C30 18.3359 29.1641 17.5 28.125 17.5H14.375Z" fill="#333333"/>
</svg>
