<svg width="60" height="60" viewBox="0 0 60 60" fill="none" xmlns="http://www.w3.org/2000/svg">
<path d="M42.5 50H20C15.8594 50 12.5 46.6406 12.5 42.5V17.5C12.5 13.3594 15.8594 10 20 10H43.75C45.8203 10 47.5 11.6797 47.5 13.75V36.25C47.5 37.8828 46.4531 39.2734 45 39.7891V45C46.3828 45 47.5 46.1172 47.5 47.5C47.5 48.8828 46.3828 50 45 50H42.5ZM20 40C18.6172 40 17.5 41.1172 17.5 42.5C17.5 43.8828 18.6172 45 20 45H40V40H20ZM22.5 21.875C22.5 22.9141 23.3359 23.75 24.375 23.75H38.125C39.1641 23.75 40 22.9141 40 21.875C40 20.8359 39.1641 20 38.125 20H24.375C23.3359 20 22.5 20.8359 22.5 21.875ZM24.375 27.5C23.3359 27.5 22.5 28.3359 22.5 29.375C22.5 30.4141 23.3359 31.25 24.375 31.25H38.125C39.1641 31.25 40 30.4141 40 29.375C40 28.3359 39.1641 27.5 38.125 27.5H24.375Z" fill="#333333"/>
</svg>
