<svg width="60" height="60" viewBox="0 0 60 60" fill="none" xmlns="http://www.w3.org/2000/svg">
<path d="M13.3337 16.1045L18.7719 26.9731C21.5222 23.8711 25.5306 21.9256 29.9999 21.9256C27.7965 18.2532 25.5931 14.5808 23.3897 10.9163C22.8818 10.0724 21.8192 9.76772 20.944 10.2053L14.1775 13.5885C13.2477 14.0495 12.8727 15.1747 13.3337 16.1045ZM29.9999 21.9256C34.4692 21.9256 38.4776 23.8789 41.2279 26.9731L46.6661 16.1045C47.1271 15.1747 46.7521 14.0495 45.8301 13.5885L39.0558 10.1975C38.1807 9.7599 37.1102 10.0724 36.6101 10.9085C34.4067 14.5808 32.2033 18.2532 29.9999 21.9177V21.9256Z" fill="#333333"/>
<path d="M29.9998 50C26.4837 50 23.1116 48.6032 20.6253 46.117C18.1391 43.6307 16.7423 40.2586 16.7423 36.7424C16.7423 33.2263 18.1391 29.8542 20.6253 27.3679C23.1116 24.8816 26.4837 23.4849 29.9998 23.4849C33.516 23.4849 36.8881 24.8816 39.3744 27.3679C41.8606 29.8542 43.2574 33.2263 43.2574 36.7424C43.2574 40.2586 41.8606 43.6307 39.3744 46.117C36.8881 48.6032 33.516 50 29.9998 50ZM32.1266 33.3245L30.5799 30.1896C30.3451 29.7063 29.6615 29.7063 29.4198 30.1896L27.8731 33.3245C27.7764 33.5178 27.5969 33.649 27.3898 33.6766L23.9304 34.1807C23.3987 34.2566 23.1915 34.9057 23.5713 35.2855L26.0778 37.7298C26.2297 37.8818 26.2988 38.0889 26.2643 38.303L25.6704 41.7485C25.5807 42.2733 26.1331 42.6807 26.6095 42.4321L29.7029 40.7957C29.8894 40.699 30.1172 40.699 30.3037 40.7957L33.3971 42.4252C33.8735 42.6738 34.4259 42.2733 34.3362 41.7416L33.7424 38.2961C33.7078 38.0889 33.7769 37.8749 33.9288 37.7229L36.4353 35.2786C36.822 34.9057 36.6079 34.2566 36.0762 34.1738L32.6168 33.6697C32.4097 33.6421 32.2233 33.504 32.1335 33.3176L32.1266 33.3245Z" fill="#333333"/>
</svg>
