<svg width="60" height="60" viewBox="0 0 60 60" fill="none" xmlns="http://www.w3.org/2000/svg">
<path d="M9.33325 17.0833C9.33325 15.6544 10.4877 14.5 11.9166 14.5H42.9166C44.3455 14.5 45.4999 15.6544 45.4999 17.0833C45.4999 18.5122 44.3455 19.6667 42.9166 19.6667H11.9166C10.4877 19.6667 9.33325 18.5122 9.33325 17.0833ZM14.4999 30C14.4999 28.5711 15.6543 27.4167 17.0833 27.4167H48.0833C49.5122 27.4167 50.6666 28.5711 50.6666 30C50.6666 31.4289 49.5122 32.5833 48.0833 32.5833H17.0833C15.6543 32.5833 14.4999 31.4289 14.4999 30ZM45.4999 42.9167C45.4999 44.3456 44.3455 45.5 42.9166 45.5H11.9166C10.4877 45.5 9.33325 44.3456 9.33325 42.9167C9.33325 41.4878 10.4877 40.3333 11.9166 40.3333H42.9166C44.3455 40.3333 45.4999 41.4878 45.4999 42.9167Z" fill="#333333"/>
</svg>
