<svg width="60" height="60" viewBox="0 0 60 60" fill="none" xmlns="http://www.w3.org/2000/svg">
<path d="M30 5.81998C37.5987 5.81998 43.7586 11.9794 43.7588 19.5778C43.7588 23.0493 42.4718 26.2196 40.3506 28.6403C37.8287 25.7625 34.1271 23.944 30 23.944C25.8726 23.944 22.1703 25.7622 19.6484 28.6403C17.5275 26.2196 16.2412 23.049 16.2412 19.5778C16.2414 11.9794 22.4013 5.82 30 5.81998ZM30 12.2321C28.6052 12.1702 27.1759 12.5529 25.9893 13.319C23.8809 14.6445 22.6251 17.1787 22.834 19.5778C22.875 20.129 22.9835 20.672 23.1562 21.1872C23.2586 21.4926 23.3834 21.7888 23.5283 22.0719C23.4456 21.7649 23.3837 21.4547 23.3418 21.1442C23.271 20.6202 23.2577 20.0939 23.2988 19.5778C23.4665 17.3335 24.7174 15.315 26.5293 14.1608C27.5573 13.4993 28.7591 13.1144 30 13.0583C31.4401 12.9878 32.9247 13.3672 34.2041 14.1842C34.4685 14.3525 34.7243 14.5395 34.9688 14.7428C34.772 14.4929 34.5546 14.2557 34.3203 14.0348C33.1907 12.9612 31.6226 12.2925 30 12.2321Z" fill="#333333"/>
<path d="M30 26.6634C37.5987 26.6634 43.7586 32.8228 43.7588 40.4212C43.7588 48.0198 37.5988 54.18 30 54.18C22.4012 54.18 16.2412 48.0197 16.2412 40.4212C16.2414 32.8228 22.4013 26.6634 30 26.6634ZM30 33.0472C29.3893 33.0474 28.8945 33.5428 28.8945 34.1536V39.3157H23.7324C23.1216 39.3157 22.6261 39.8104 22.626 40.4212C22.626 41.0321 23.1215 41.5276 23.7324 41.5276H28.8945V46.6898C28.8946 47.3005 29.3893 47.796 30 47.7962C30.6108 47.796 31.1064 47.3005 31.1064 46.6898V41.5276H36.2686C36.8793 41.5275 37.375 41.032 37.375 40.4212C37.3748 39.8105 36.8792 39.3159 36.2686 39.3157H31.1064V34.1536C31.1064 33.5428 30.6108 33.0473 30 33.0472Z" fill="#333333"/>
</svg>
