<svg width="40" height="40" viewBox="0 0 40 40" fill="none" xmlns="http://www.w3.org/2000/svg">
<g clip-path="url(#clip0_351_10540)">
<path d="M20.0322 0.27774C22.2414 0.27774 24.0322 2.0686 24.0322 4.27774V15.7895H35.5449C37.7538 15.7896 39.5448 17.5806 39.5449 19.7895C39.5449 21.9985 37.7539 23.7893 35.5449 23.7895H24.0322V35.3022C24.0321 37.5112 22.2413 39.3022 20.0322 39.3022C17.8232 39.3021 16.0323 37.5112 16.0322 35.3022V23.7895H4.52051C2.31137 23.7895 0.520508 21.9986 0.520508 19.7895C0.520677 17.5805 2.31147 15.7895 4.52051 15.7895H16.0322V4.27774C16.0322 2.06866 17.8232 0.277831 20.0322 0.27774Z" fill="#333333"/>
</g>
<defs>
<clipPath id="clip0_351_10540">
<rect width="40" height="40" fill="white"/>
</clipPath>
</defs>
</svg>
