<svg width="60" height="60" viewBox="0 0 60 60" fill="none" xmlns="http://www.w3.org/2000/svg">
<path d="M29.5332 10.4668C31.1901 10.4668 32.5332 11.8099 32.5332 13.4668V27.4668H46.5332C48.1901 27.4668 49.5332 28.8099 49.5332 30.4668C49.5332 32.1236 48.19 33.4668 46.5332 33.4668H32.5332V47.4668C32.5332 49.1236 31.19 50.4668 29.5332 50.4668C27.8764 50.4668 26.5332 49.1236 26.5332 47.4668V33.4668H12.5332C10.8764 33.4668 9.53324 32.1236 9.5332 30.4668C9.5332 28.8099 10.8763 27.4668 12.5332 27.4668H26.5332V13.4668C26.5332 11.8099 27.8763 10.4668 29.5332 10.4668Z" fill="#333333"/>
</svg>
