<svg width="60" height="60" viewBox="0 0 60 60" fill="none" xmlns="http://www.w3.org/2000/svg">
<path d="M30 29.0476C31.2507 29.0476 32.4892 28.8013 33.6446 28.3227C34.8001 27.844 35.85 27.1425 36.7344 26.2582C37.6188 25.3738 38.3203 24.3239 38.7989 23.1684C39.2775 22.0129 39.5238 20.7745 39.5238 19.5238C39.5238 18.2731 39.2775 17.0347 38.7989 15.8792C38.3203 14.7237 37.6188 13.6738 36.7344 12.7895C35.85 11.9051 34.8001 11.2036 33.6446 10.725C32.4892 10.2463 31.2507 10 30 10C28.7493 10 27.5109 10.2463 26.3554 10.725C25.1999 11.2036 24.15 11.9051 23.2657 12.7895C22.3813 13.6738 21.6798 14.7237 21.2012 15.8792C20.7226 17.0347 20.4762 18.2731 20.4762 19.5238C20.4762 20.7745 20.7226 22.0129 21.2012 23.1684C21.6798 24.3239 22.3813 25.3738 23.2657 26.2582C24.15 27.1425 25.1999 27.844 26.3554 28.3227C27.5109 28.8013 28.7493 29.0476 30 29.0476ZM27.6429 33.4921C19.8254 33.4921 13.4921 39.8254 13.4921 47.6429C13.4921 48.9444 14.5477 50 15.8492 50H44.1508C45.4524 50 46.508 48.9444 46.508 47.6429C46.508 39.8254 40.1746 33.4921 32.3572 33.4921H27.6429Z" fill="#333333"/>
</svg>
