<svg width="40" height="40" viewBox="0 0 40 40" fill="none" xmlns="http://www.w3.org/2000/svg">
<g clip-path="url(#clip0_351_10633)">
<path d="M21.5625 1.84553C21.2644 1.26389 20.661 0.893097 20.0066 0.893097C19.3523 0.893097 18.7488 1.26389 18.4508 1.84553L13.0997 12.3295L1.47422 14.1762C0.827144 14.278 0.28913 14.7361 0.0855567 15.3613C-0.118016 15.9866 0.0492043 16.67 0.507244 17.1353L8.82466 25.46L6.9925 37.0855C6.89071 37.7326 7.15972 38.3869 7.69046 38.7722C8.22121 39.1576 8.91917 39.2157 9.50808 38.9176L20.0066 33.5811L30.4979 38.9176C31.0796 39.2157 31.7848 39.1576 32.3155 38.7722C32.8463 38.3869 33.1153 37.7398 33.0135 37.0855L31.1741 25.46L39.4915 17.1353C39.9568 16.67 40.1168 15.9866 39.9132 15.3613C39.7096 14.7361 39.1789 14.278 38.5245 14.1762L26.9063 12.3295L21.5625 1.84553Z" fill="#333333"/>
</g>
<defs>
<clipPath id="clip0_351_10633">
<rect width="40" height="40" fill="white"/>
</clipPath>
</defs>
</svg>
