<svg width="26" height="26" viewBox="0 0 26 26" fill="none" xmlns="http://www.w3.org/2000/svg">
<path d="M1.16768 12.3828C0.687128 14.1744 1.75088 16.0173 3.54246 16.4979L12.3837 18.868C14.1753 19.3485 16.0182 18.2848 16.4987 16.4932L18.8689 7.65194C19.3167 5.97234 18.4116 4.25074 16.8207 3.64422L16.4941 3.53691L7.65282 1.1668L7.3169 1.09682C5.74461 0.84021 4.20497 1.73133 3.64043 3.21498L3.53313 3.54157L1.16302 12.3828H1.16768ZM6.78503 11.8836C6.88926 12.0536 6.95839 12.2427 6.98836 12.4398C7.01832 12.6369 7.0085 12.838 6.95948 13.0312C6.91045 13.2245 6.82322 13.406 6.70293 13.565C6.58264 13.724 6.43172 13.8572 6.25908 13.957C6.08644 14.0567 5.89558 14.1208 5.69775 14.1456C5.49992 14.1703 5.29914 14.1552 5.10725 14.1011C4.91536 14.047 4.73624 13.9551 4.58048 13.8306C4.42471 13.7062 4.29544 13.5518 4.2003 13.3766C4.09607 13.2066 4.02694 13.0175 3.99697 12.8204C3.96701 12.6233 3.97683 12.4222 4.02586 12.229C4.07488 12.0357 4.16211 11.8542 4.2824 11.6952C4.40269 11.5363 4.55361 11.403 4.72625 11.3033C4.89889 11.2035 5.08975 11.1394 5.28758 11.1146C5.48541 11.0899 5.68619 11.105 5.87808 11.1591C6.06997 11.2132 6.24909 11.3052 6.40485 11.4296C6.56062 11.554 6.68989 11.7084 6.78503 11.8836ZM8.69791 4.74529C8.80214 4.91525 8.87128 5.10435 8.90124 5.30146C8.9312 5.49857 8.92138 5.69968 8.87236 5.89293C8.82334 6.08617 8.73611 6.26765 8.61581 6.42664C8.49552 6.58563 8.3446 6.71892 8.17196 6.81864C7.99932 6.91836 7.80846 6.98249 7.61063 7.00725C7.41281 7.03201 7.21202 7.0169 7.02013 6.9628C6.82824 6.90871 6.64913 6.81673 6.49336 6.69229C6.33759 6.56786 6.20833 6.41348 6.11319 6.23827C6.00896 6.06832 5.93982 5.87921 5.90986 5.68211C5.8799 5.485 5.88972 5.28389 5.93874 5.09064C5.98776 4.89739 6.07499 4.71592 6.19528 4.55693C6.31558 4.39794 6.4665 4.26465 6.63914 4.16493C6.81178 4.06521 7.00264 4.00108 7.20047 3.97632C7.39829 3.95156 7.59907 3.96667 7.79096 4.02076C7.98286 4.07486 8.16197 4.16684 8.31774 4.29127C8.47351 4.41571 8.60277 4.57009 8.69791 4.74529ZM11.3106 9.27089C11.4149 9.44085 11.484 9.62996 11.514 9.82706C11.5439 10.0242 11.5341 10.2253 11.4851 10.4185C11.4361 10.6118 11.3488 10.7933 11.2285 10.9522C11.1082 11.1112 10.9573 11.2445 10.7847 11.3442C10.612 11.444 10.4212 11.5081 10.2234 11.5329C10.0255 11.5576 9.82474 11.5425 9.63285 11.4884C9.44096 11.4343 9.26185 11.3423 9.10608 11.2179C8.95031 11.0935 8.82104 10.9391 8.7259 10.7639C8.62167 10.5939 8.55254 10.4048 8.52258 10.2077C8.49262 10.0106 8.50244 9.80949 8.55146 9.61624C8.60048 9.42299 8.68771 9.24152 8.808 9.08253C8.9283 8.92354 9.07921 8.79025 9.25185 8.69053C9.42449 8.59081 9.61536 8.52668 9.81318 8.50192C10.011 8.47716 10.2118 8.49227 10.4037 8.54636C10.5956 8.60046 10.7747 8.69244 10.9305 8.81688C11.0862 8.94131 11.2155 9.09569 11.3106 9.27089ZM13.9234 13.7965C14.0276 13.9665 14.0967 14.1556 14.1267 14.3527C14.1566 14.5498 14.1468 14.7509 14.0978 14.9441C14.0488 15.1374 13.9615 15.3189 13.8413 15.4778C13.721 15.6368 13.57 15.7701 13.3974 15.8698C13.2248 15.9696 13.0339 16.0337 12.8361 16.0585C12.6382 16.0832 12.4375 16.0681 12.2456 16.014C12.0537 15.9599 11.8746 15.8679 11.7188 15.7435C11.563 15.6191 11.4338 15.4647 11.3386 15.2895C11.2344 15.1195 11.1653 14.9304 11.1353 14.7333C11.1053 14.5362 11.1152 14.3351 11.1642 14.1418C11.2132 13.9486 11.3004 13.7671 11.4207 13.6081C11.541 13.4491 11.6919 13.3159 11.8646 13.2161C12.0372 13.1164 12.2281 13.0523 12.4259 13.0275C12.6237 13.0028 12.8245 13.0179 13.0164 13.072C13.2083 13.1261 13.3874 13.218 13.5432 13.3425C13.6989 13.4669 13.8282 13.6213 13.9234 13.7965ZM15.8362 6.65818C15.9405 6.82813 16.0096 7.01724 16.0396 7.21434C16.0695 7.41145 16.0597 7.61256 16.0107 7.80581C15.9617 7.99906 15.8744 8.18053 15.7541 8.33952C15.6338 8.49851 15.4829 8.6318 15.3103 8.73152C15.1376 8.83124 14.9468 8.89537 14.749 8.92013C14.5511 8.94489 14.3503 8.92978 14.1585 8.87569C13.9666 8.82159 13.7875 8.72961 13.6317 8.60518C13.4759 8.48074 13.3466 8.32636 13.2515 8.15116C13.1473 7.9812 13.0781 7.79209 13.0482 7.59499C13.0182 7.39788 13.028 7.19677 13.0771 7.00352C13.1261 6.81027 13.2133 6.6288 13.3336 6.46981C13.4539 6.31082 13.6048 6.17753 13.7775 6.07781C13.9501 5.97809 14.141 5.91396 14.3388 5.8892C14.5366 5.86444 14.7374 5.87955 14.9293 5.93365C15.1212 5.98774 15.3003 6.07972 15.4561 6.20416C15.6118 6.32859 15.7411 6.48297 15.8362 6.65818Z" fill="#E9F4F3"/>
<path opacity="0.4" d="M10.0181 20.5522V21.9612C10.0181 23.6081 11.3571 24.9472 13.004 24.9472H21.9619C23.6089 24.9472 24.9479 23.6081 24.9479 21.9612V13.0033C24.9479 11.3564 23.6089 10.0173 21.9619 10.0173H20.5529L18.6634 17.0717C17.8889 19.9643 14.9822 21.7186 12.0849 21.0981L11.805 21.0327L10.0181 20.5522Z" fill="#E9F4F3"/>
</svg>
