<svg width="244" height="32" viewBox="0 0 244 32" fill="none" xmlns="http://www.w3.org/2000/svg">
<path d="M80.2451 7.05371C80.7001 7.06958 81.0919 7.10937 81.4199 7.17285C81.8569 7.24334 82.2658 7.32069 82.6465 7.40527C83.0414 7.48989 83.4859 7.53221 83.9795 7.53223C84.3321 7.53223 84.9605 7.51107 85.8633 7.46875C86.78 7.41233 87.7601 7.33504 88.8037 7.23633L88.5293 10.1143L85.8037 9.98242C86.4352 10.8044 86.7519 11.7436 86.752 12.8008C86.752 14.5497 86.1169 15.9464 84.8477 16.9902C83.5922 18.0341 81.8921 18.5566 79.748 18.5566C79.1727 18.5566 78.6297 18.5165 78.1182 18.4414C77.7379 18.9215 77.5479 19.4044 77.5479 19.8896C77.548 20.5946 78.0201 20.9472 78.9648 20.9473H84.0859C85.7079 20.9473 86.9492 21.2786 87.8096 21.9414C88.6841 22.5903 89.1211 23.5286 89.1211 24.7559C89.1211 25.983 88.7052 27.076 87.873 28.0352C87.0408 29.0085 85.8908 29.7702 84.4238 30.3203C82.971 30.8704 81.3067 31.1455 79.4307 31.1455C77.202 31.1455 75.4246 30.7582 74.0986 29.9824C72.7869 29.2208 72.131 28.1838 72.1309 26.8721C72.1309 25.4911 72.9525 24.3956 74.5947 23.584C74.2079 23.0688 74.0137 22.4155 74.0137 21.624C74.0138 20.1667 74.7387 18.9319 76.1865 17.918C75.6252 17.6813 75.1192 17.3803 74.6699 17.0117C73.4145 15.9679 72.7871 14.5714 72.7871 12.8223C72.7871 11.059 73.4145 9.65516 74.6699 8.61133C75.9394 7.56758 77.6396 7.0459 79.7695 7.0459L80.2451 7.05371ZM76.5713 24.7705C76.2775 25.2269 76.1299 25.7012 76.1299 26.1943C76.1299 27.0125 76.4684 27.6408 77.1455 28.0781C77.8366 28.5153 78.824 28.7334 80.1074 28.7334C81.4615 28.7334 82.5407 28.4868 83.3447 27.9932C84.1628 27.5136 84.5722 26.8649 84.5723 26.0469C84.5723 25.2993 84.0994 24.9248 83.1543 24.9248H78.0342C77.4955 24.9248 77.0081 24.8724 76.5713 24.7705ZM175.513 7.02441C178.122 7.02441 180.196 7.79362 181.733 9.33105C183.271 10.8686 184.04 12.9422 184.04 15.5518C184.04 18.1753 183.264 20.2628 181.713 21.8145C180.161 23.352 178.073 24.1211 175.449 24.1211C172.84 24.121 170.76 23.3519 169.208 21.8145C167.67 20.2769 166.901 18.2107 166.901 15.6152C166.901 12.9917 167.677 10.9042 169.229 9.35254C170.78 7.80095 172.875 7.02448 175.513 7.02441ZM46.042 7.02441C47.9745 7.02441 49.7169 7.46235 51.2686 8.33691C51.4237 9.02799 51.5295 9.76881 51.5859 10.5586C51.6423 11.3343 51.6424 12.11 51.5859 12.8857H49.2578L47.7598 10.085C47.5956 10.0183 47.4325 9.95666 47.2695 9.90234C46.7335 9.71897 46.2533 9.62695 45.8301 9.62695C44.9133 9.62705 44.2011 10.065 43.6934 10.9395C43.1997 11.7999 42.9531 13.0484 42.9531 14.6846C42.9532 18.7469 44.6248 20.7783 47.9678 20.7783C49.3218 20.7783 50.6974 20.517 52.0938 19.9951L51.8818 22.7031C50.3726 23.62 48.4543 24.0791 46.127 24.0791C43.3622 24.0791 41.2389 23.3735 39.7578 21.9629C38.2767 20.5523 37.5361 18.5348 37.5361 15.9111C37.5362 13.1888 38.3053 11.0304 39.8428 9.43652C41.3803 7.82867 43.4467 7.02441 46.042 7.02441ZM28.6494 7.0459C32.4579 7.0459 34.3622 8.62565 34.3623 11.7852C34.3623 12.1801 34.3549 12.8011 34.3408 13.6475C34.3267 14.4796 34.3129 15.3823 34.2988 16.3555C34.2847 17.3147 34.2709 18.2181 34.2568 19.0645C34.2431 19.8775 34.2357 20.4954 34.2354 20.918V21.2783L35.9707 21.7939L35.8223 23.5713C34.5527 23.7829 32.8388 23.8739 30.6807 23.8457L30.0908 22.0781C28.6211 23.3964 26.9851 24.0575 25.1797 24.0576C23.7127 24.0576 22.5416 23.6482 21.667 22.8301C20.7926 21.9979 20.3555 20.8909 20.3555 19.5088C20.3555 16.603 22.5275 14.6987 26.8721 13.7959L29.4961 13.2471V12.6104C29.496 10.6075 28.6211 9.60645 26.8721 9.60645C26.3625 9.60645 25.8562 9.69224 25.3525 9.86328L23.8037 12.7588H21.4131L21.4033 12.2207C21.394 10.9785 21.4818 9.83867 21.667 8.80176C23.7687 7.63102 26.0963 7.0459 28.6494 7.0459ZM98.0928 7.0459C101.901 7.0459 103.806 8.62565 103.806 11.7852C103.806 12.1801 103.798 12.8011 103.784 13.6475C103.77 14.4796 103.756 15.3823 103.742 16.3555C103.728 17.3147 103.714 18.2181 103.7 19.0645C103.686 19.8726 103.679 20.4878 103.679 20.9102V21.2783L105.414 21.7939L105.266 23.5713C103.996 23.7829 102.282 23.8739 100.124 23.8457L99.5342 22.0781C98.0644 23.3964 96.4285 24.0575 94.623 24.0576C93.156 24.0576 91.9849 23.6482 91.1104 22.8301C90.236 21.9979 89.7989 20.8909 89.7988 19.5088C89.7988 16.603 91.9709 14.6987 96.3154 13.7959L98.9395 13.2471V12.6104C98.9394 10.6075 98.0645 9.60645 96.3154 9.60645C95.8059 9.60645 95.2995 9.69224 94.7959 9.86328L93.2471 12.7588H90.8564L90.8467 12.2207C90.8374 10.9785 90.9252 9.83867 91.1104 8.80176C93.2121 7.63102 95.5397 7.0459 98.0928 7.0459ZM222.741 14.623C224.165 14.623 225.296 15.0422 226.135 15.8809C226.973 16.7194 227.393 17.8503 227.393 19.2734C227.393 20.7045 226.969 21.8441 226.123 22.6904C225.277 23.5289 224.138 23.9482 222.707 23.9482C221.284 23.9482 220.148 23.5291 219.302 22.6904C218.463 21.8518 218.044 20.7242 218.044 19.3086C218.044 17.8777 218.467 16.7389 219.313 15.8926C220.16 15.0463 221.303 14.6231 222.741 14.623ZM207.334 20.8779C207.819 20.8779 208.204 21.017 208.488 21.2939C208.78 21.5632 208.927 21.9322 208.927 22.4014C208.927 22.8705 208.78 23.2435 208.488 23.5205C208.204 23.7898 207.819 23.9248 207.334 23.9248C206.849 23.9248 206.46 23.7898 206.168 23.5205C205.884 23.2436 205.741 22.8705 205.741 22.4014C205.741 21.9323 205.884 21.5632 206.168 21.2939C206.46 21.017 206.849 20.8779 207.334 20.8779ZM214.305 14.623C215.359 14.623 216.309 14.861 217.155 15.3379C217.24 15.7148 217.298 16.119 217.329 16.5498C217.36 16.9729 217.36 17.3963 217.329 17.8193H216.06L215.241 16.292C215.152 16.2557 215.063 16.2219 214.975 16.1924C214.682 16.0924 214.42 16.042 214.189 16.042C213.689 16.042 213.3 16.2808 213.023 16.7578C212.754 17.2271 212.62 17.9084 212.62 18.8008C212.62 21.0166 213.532 22.124 215.355 22.124C216.094 22.124 216.844 21.9819 217.605 21.6973L217.49 23.1748C216.667 23.6749 215.62 23.9248 214.351 23.9248C212.843 23.9247 211.685 23.5398 210.877 22.7705C210.069 22.0011 209.665 20.9007 209.665 19.4697C209.665 17.985 210.084 16.8078 210.923 15.9385C211.761 15.0614 212.889 14.6231 214.305 14.623ZM9.66992 2.79297C12.2512 2.79297 14.2329 3.2374 15.6152 4.12598C16.9976 5.01465 17.6895 6.29156 17.6895 7.95605C17.6894 9.70488 16.9274 11.0447 15.4043 11.9756C15.0298 12.2045 14.6149 12.4045 14.1611 12.5771C17.3027 13.3256 18.8739 14.9228 18.874 17.3711C18.874 19.3177 17.978 20.8697 16.1865 22.0264C14.4299 23.1556 12.0601 23.7252 9.07715 23.7383V23.7402H0.0849609L0.233398 21.8779C0.734829 21.6586 1.34849 21.451 2.07422 21.2549V5.14844L0 4.69727L0.148438 2.79297H9.66992ZM60.0918 13.8594H61.376L65.7109 9.80762L63.583 9.30957L63.7305 7.40527H71.0303L70.8828 9.26758C70.5726 9.4509 70.2126 9.61288 69.8037 9.75391C69.725 9.7792 69.6447 9.80102 69.5654 9.8252L65.0576 13.9014L70.7656 21.6113L71.708 21.8359L71.5596 23.7402H66.291L61.249 16.4404H60.0918V21.4775L61.9531 21.8779L61.8057 23.7402H53.4053L53.5537 21.9629C53.9486 21.7655 54.3434 21.6035 54.7383 21.4766C54.8863 21.4306 55.0346 21.387 55.1826 21.3447V3.31348L53.0244 2.30664L53.1514 0.910156C54.6606 0.374162 56.3673 0.0705516 58.2715 0H60.0918V13.8594ZM128.667 7.0459C130.261 7.0459 131.488 7.4553 132.349 8.27344C133.209 9.07747 133.64 10.2338 133.64 11.7432V21.4775L135.502 21.9209L135.354 23.7402H127.165L127.313 21.8779C127.61 21.7229 127.948 21.5894 128.329 21.4766C128.461 21.4325 128.595 21.3915 128.73 21.3525V13.0342C128.73 11.1018 127.92 10.1349 126.298 10.1348C125.49 10.1348 124.633 10.3806 123.726 10.8711C123.761 11.1474 123.779 11.438 123.779 11.7432V21.4834L125.557 21.9209L125.409 23.7402H117.305L117.453 21.8779C117.749 21.7228 118.088 21.5894 118.469 21.4766C118.601 21.4324 118.735 21.3906 118.871 21.3516V13.0342C118.871 11.1018 118.067 10.1349 116.459 10.1348C115.677 10.1348 114.844 10.3698 113.962 10.8398V21.4844L115.908 21.9209L115.761 23.7402H107.275L107.424 21.9629C107.819 21.7655 108.214 21.6035 108.608 21.4766C108.756 21.4307 108.905 21.3879 109.053 21.3457V11.1074L106.979 9.96582L107.106 8.52734C107.868 8.1888 108.722 7.90636 109.667 7.68066C110.626 7.45503 111.606 7.29948 112.607 7.21484L113.197 9.10059C114.767 7.73244 116.643 7.04596 118.828 7.0459C120.422 7.0459 121.643 7.4553 122.489 8.27344C122.726 8.49511 122.93 8.74427 123.102 9.01953C124.649 7.70503 126.503 7.04596 128.667 7.0459ZM158.628 7.0459C160.222 7.0459 161.449 7.4553 162.31 8.27344C163.17 9.07747 163.601 10.2338 163.601 11.7432V21.4775L165.463 21.9209L165.314 23.7402H157.126L157.274 21.8779C157.571 21.7229 157.909 21.5894 158.29 21.4766C158.422 21.4325 158.556 21.3915 158.691 21.3525V13.0342C158.691 11.1018 157.881 10.1349 156.259 10.1348C155.451 10.1348 154.594 10.3806 153.687 10.8711C153.722 11.1474 153.74 11.438 153.74 11.7432V21.4834L155.518 21.9209L155.37 23.7402H147.266L147.414 21.8779C147.71 21.7228 148.049 21.5894 148.43 21.4766C148.562 21.4324 148.696 21.3906 148.832 21.3516V13.0342C148.832 11.1018 148.028 10.1349 146.42 10.1348C145.638 10.1348 144.805 10.3698 143.923 10.8398V21.4844L145.869 21.9209L145.722 23.7402H137.236L137.385 21.9629C137.78 21.7655 138.174 21.6035 138.569 21.4766C138.717 21.4307 138.866 21.3879 139.014 21.3457V11.1074L136.94 9.96582L137.067 8.52734C137.829 8.1888 138.683 7.90636 139.628 7.68066C140.587 7.45503 141.567 7.29948 142.568 7.21484L143.158 9.10059C144.728 7.73244 146.604 7.04597 148.789 7.0459C150.383 7.0459 151.604 7.4553 152.45 8.27344C152.687 8.49511 152.891 8.74427 153.062 9.01953C154.61 7.70503 156.464 7.04596 158.628 7.0459ZM197.497 7.0459C199.133 7.0459 200.382 7.4553 201.242 8.27344C202.103 9.07747 202.533 10.2339 202.533 11.7432V21.4775L204.395 21.9209L204.247 23.7402H196.059L196.206 21.8779C196.502 21.7228 196.841 21.5894 197.222 21.4766C197.354 21.4325 197.488 21.3915 197.624 21.3525V13.0342C197.624 11.1017 196.791 10.1348 195.127 10.1348C194.306 10.1348 193.446 10.3725 192.546 10.8467V21.4795L194.577 21.9209L194.429 23.7402H185.859L186.008 21.9629C186.403 21.7655 186.798 21.6035 187.192 21.4766C187.34 21.4307 187.489 21.3879 187.637 21.3457V11.1074L185.563 9.96582L185.69 8.52734C186.452 8.1888 187.306 7.90636 188.251 7.68066C189.21 7.45503 190.19 7.29948 191.191 7.21484L191.779 9.09473C192.349 8.60656 192.972 8.20631 193.646 7.89258C194.874 7.32839 196.157 7.0459 197.497 7.0459ZM240.054 14.6338C240.923 14.6339 241.592 14.8575 242.062 15.3037C242.531 15.7423 242.766 16.3731 242.766 17.1963V22.5059L243.781 22.748L243.7 23.7402H239.233L239.314 22.7246C239.476 22.64 239.661 22.5664 239.868 22.5049C239.94 22.4809 240.014 22.4597 240.088 22.4385V17.9004C240.088 16.8463 239.646 16.3194 238.761 16.3193C238.319 16.3193 237.851 16.4542 237.355 16.7227C237.375 16.8729 237.388 17.0305 237.388 17.1963V22.5088L238.356 22.748L238.276 23.7402H233.855L233.937 22.7246C234.098 22.64 234.283 22.5664 234.49 22.5049C234.562 22.4808 234.636 22.4597 234.71 22.4385V17.9004C234.71 16.8463 234.271 16.3193 233.394 16.3193C232.967 16.3194 232.513 16.4478 232.032 16.7041V22.5098L233.094 22.748L233.013 23.7402H228.385L228.466 22.7705C228.681 22.6628 228.897 22.5741 229.112 22.5049C229.193 22.4799 229.274 22.4566 229.354 22.4336V16.8496L228.224 16.2266L228.293 15.4424C228.708 15.2577 229.174 15.1036 229.689 14.9805C230.213 14.8574 230.748 14.7727 231.294 14.7266L231.615 15.7549C232.471 15.0087 233.494 14.6338 234.687 14.6338C235.556 14.6338 236.222 14.8575 236.684 15.3037C236.813 15.4246 236.922 15.5618 237.016 15.7119C237.86 14.994 238.873 14.6338 240.054 14.6338ZM222.545 16.0537C221.514 16.054 220.999 17.0273 220.999 18.9736C220.999 20.1124 221.16 20.9899 221.483 21.6055C221.814 22.2132 222.284 22.5166 222.892 22.5166C223.923 22.5166 224.438 21.5432 224.438 19.5967C224.438 18.4582 224.272 17.5853 223.941 16.9775C223.618 16.362 223.153 16.0537 222.545 16.0537ZM175.153 9.64844C173.263 9.64844 172.318 11.4332 172.318 15.002C172.318 17.0895 172.615 18.6978 173.207 19.8262C173.814 20.9403 174.674 21.4971 175.788 21.4971C177.678 21.4971 178.623 19.7131 178.623 16.1445C178.623 14.0569 178.32 12.4552 177.714 11.3408C177.121 10.2124 176.268 9.64844 175.153 9.64844ZM7.15234 21.0742H9.47949C12.0468 21.0742 13.3301 19.9877 13.3301 17.8154C13.3299 15.46 11.821 14.2823 8.80273 14.2822H7.15234V21.0742ZM28.0781 15.6152C27.133 15.7281 26.4422 16.0105 26.0049 16.4619C25.5818 16.8991 25.3702 17.5617 25.3701 18.4502C25.3701 20.1852 26.0472 21.0527 27.4014 21.0527C27.9808 21.0527 28.6523 20.8587 29.417 20.4727C29.4227 19.6192 29.4328 18.7544 29.4531 17.8789C29.4727 17.0278 29.4833 16.214 29.4893 15.4375L28.0781 15.6152ZM97.5215 15.6152C96.5764 15.7281 95.8855 16.0105 95.4482 16.4619C95.0251 16.8991 94.8135 17.5617 94.8135 18.4502C94.8135 20.1852 95.4906 21.0527 96.8447 21.0527C97.4242 21.0527 98.0956 20.8587 98.8604 20.4727C98.866 19.6192 98.8761 18.7544 98.8965 17.8789C98.916 17.0278 98.9266 16.214 98.9326 15.4375L97.5215 15.6152ZM79.5361 9.35254C78.2245 9.35271 77.5684 10.3895 77.5684 12.4629C77.5684 13.6758 77.7736 14.6135 78.1826 15.2764C78.5917 15.9252 79.1841 16.25 79.96 16.25C81.2998 16.2498 81.9697 15.213 81.9697 13.1396C81.9697 10.6147 81.1583 9.35254 79.5361 9.35254ZM7.15234 11.8701H9.31055C11.2569 11.87 12.2305 10.7909 12.2305 8.63281C12.2305 6.51693 11.2921 5.45899 9.41602 5.45898H7.15234V11.8701Z" fill="black"/>
</svg>
