<svg width="21" height="24" viewBox="0 0 21 24" fill="none" xmlns="http://www.w3.org/2000/svg">
<path d="M19.792 18.7033C19.4291 19.5418 18.9994 20.3136 18.5017 21.0232C17.8232 21.9906 17.2676 22.6602 16.8395 23.032C16.1758 23.6424 15.4647 23.955 14.7033 23.9728C14.1566 23.9728 13.4974 23.8172 12.73 23.5017C11.9601 23.1876 11.2526 23.032 10.6056 23.032C9.92711 23.032 9.19943 23.1876 8.42108 23.5017C7.64155 23.8172 7.01357 23.9816 6.53343 23.9979C5.80323 24.0291 5.0754 23.7076 4.34891 23.032C3.88522 22.6276 3.30524 21.9343 2.61044 20.9521C1.86498 19.9033 1.25211 18.687 0.771977 17.3004C0.25777 15.8026 0 14.3523 0 12.9482C0 11.3398 0.347545 9.95259 1.04367 8.79011C1.59077 7.85636 2.3186 7.11979 3.22953 6.57906C4.14047 6.03834 5.12474 5.76279 6.18471 5.74516C6.76469 5.74516 7.52526 5.92456 8.47042 6.27715C9.41291 6.63091 10.0181 6.81031 10.2834 6.81031C10.4818 6.81031 11.154 6.60054 12.2937 6.18233C13.3715 5.79449 14.2811 5.63391 15.0262 5.69716C17.0454 5.86012 18.5624 6.6561 19.5713 8.09013C17.7654 9.18432 16.8721 10.7169 16.8899 12.6829C16.9062 14.2142 17.4617 15.4886 18.5535 16.5004C19.0483 16.97 19.6009 17.333 20.2157 17.5907C20.0824 17.9774 19.9416 18.3477 19.792 18.7033ZM15.161 0.480137C15.161 1.68041 14.7225 2.8011 13.8485 3.8384C12.7937 5.07155 11.5179 5.78412 10.1344 5.67168C10.1167 5.52769 10.1065 5.37614 10.1065 5.21688C10.1065 4.06462 10.6081 2.83147 11.4989 1.82321C11.9436 1.3127 12.5093 0.888228 13.1952 0.549615C13.8796 0.216055 14.527 0.031589 15.1358 0C15.1536 0.160458 15.161 0.320941 15.161 0.480137Z" fill="white"/>
</svg>
